<svg width="147" height="147" viewBox="0 0 147 147" fill="none" xmlns="http://www.w3.org/2000/svg">
<g filter="url(#filter0_d_360_25180)">
<rect x="26.666" y="21.8291" width="92.9448" height="92.9448" rx="19.9167" fill="white"/>
</g>
<path opacity="0.35" d="M84.2163 87.488C86.0942 86.4051 88.2573 86.3137 90.1297 87.0338C91.6918 87.6348 93.4782 87.1363 94.539 85.8428C96.4307 83.5357 97.9568 80.9183 99.0287 78.0738C99.6408 76.448 99.0619 74.6615 97.7352 73.537C96.2424 72.2796 95.2951 70.4073 95.2951 68.2995C95.2951 66.1918 96.2424 64.3195 97.7325 63.0565C99.0592 61.932 99.6408 60.1483 99.0259 58.5197C97.9541 55.678 96.4307 53.0579 94.5362 50.7507C93.4754 49.4573 91.689 48.9587 90.1269 49.5597C88.2573 50.2854 86.0942 50.194 84.2163 49.1111C82.333 48.0226 81.1697 46.1863 80.865 44.1948C80.6157 42.5663 79.3251 41.2645 77.6992 40.9875C76.2147 40.7355 74.6913 40.6025 73.1375 40.6025C71.5837 40.6025 70.0604 40.7355 68.5759 40.9875C66.95 41.2645 65.6621 42.5663 65.4101 44.1948C65.1054 46.1863 63.9421 48.0226 62.0587 49.1111C60.1809 50.194 58.0178 50.2854 56.1454 49.5625C54.5833 48.9615 52.7969 49.46 51.7361 50.7535C49.8444 53.0606 48.321 55.678 47.2492 58.5225C46.6343 60.1483 47.2159 61.9348 48.5426 63.0565C50.0327 64.3195 50.9799 66.1918 50.9799 68.2995C50.9799 70.4073 50.0327 72.2796 48.5426 73.5426C47.2159 74.6671 46.6343 76.4508 47.2492 78.0793C48.321 80.9211 49.8444 83.5412 51.7388 85.8484C52.7996 87.1418 54.5861 87.6404 56.1482 87.0393C58.0178 86.3137 60.1809 86.4051 62.0587 87.488C63.9421 88.5765 65.1054 90.4128 65.4101 92.4042C65.6594 94.0328 66.95 95.3346 68.5759 95.6115C70.0604 95.8636 71.5837 95.9965 73.1375 95.9965C74.6913 95.9965 76.2147 95.8636 77.6992 95.6115C79.3251 95.3373 80.6157 94.0356 80.865 92.4042C81.1697 90.4128 82.333 88.5765 84.2163 87.488Z" fill="#F05454"/>
<path d="M73.1374 57.2207C67.0191 57.2207 62.0586 62.1812 62.0586 68.2995C62.0586 74.4178 67.0191 79.3783 73.1374 79.3783C79.2557 79.3783 84.2162 74.4178 84.2162 68.2995C84.2162 62.1812 79.2557 57.2207 73.1374 57.2207Z" fill="#F05454"/>
<defs>
<filter id="filter0_d_360_25180" x="0.110352" y="0.58457" width="146.057" height="146.056" filterUnits="userSpaceOnUse" color-interpolation-filters="sRGB">
<feFlood flood-opacity="0" result="BackgroundImageFix"/>
<feColorMatrix in="SourceAlpha" type="matrix" values="0 0 0 0 0 0 0 0 0 0 0 0 0 0 0 0 0 0 127 0" result="hardAlpha"/>
<feOffset dy="5.31113"/>
<feGaussianBlur stdDeviation="13.2778"/>
<feColorMatrix type="matrix" values="0 0 0 0 0.090196 0 0 0 0 0.0588235 0 0 0 0 0.286275 0 0 0 0.08 0"/>
<feBlend mode="normal" in2="BackgroundImageFix" result="effect1_dropShadow_360_25180"/>
<feBlend mode="normal" in="SourceGraphic" in2="effect1_dropShadow_360_25180" result="shape"/>
</filter>
</defs>
</svg>
