<svg width="110" height="29" viewBox="0 0 110 29" fill="none" xmlns="http://www.w3.org/2000/svg">
<g clip-path="url(#clip0_360_24730)">
<path d="M6.59716 0.5H56.9153C56.9153 0.5 54.9996 14.1713 45.6767 20.0868L52.3177 28.3685L33.8635 28.4342L31.1177 24.6878L29.9683 28.5L9.2395 28.4382C9.2395 28.4382 -0.357985 28.9233 1.06599 16.7479C1.51809 12.8055 6.59716 0.5 6.59716 0.5Z" fill="white"/>
<path d="M9.58991 4.20564L16.3663 4.18066C14.9742 8.18611 12.4902 15.1362 12.3293 15.9932C12.0151 17.6746 12.1058 18.6933 12.7265 19.4295C13.397 20.2182 14.4557 20.4299 15.2948 20.4667C16.941 20.5219 19.4952 20.6126 21.1554 20.4811C21.1554 20.4811 21.2538 20.5771 21.6663 19.5609L25.1783 9.11024H39.7374C39.7374 9.11024 39.2265 12.0023 36.2892 12.2652C34.4979 12.4237 32.6987 12.465 30.9023 12.3887L26.9663 24.4905L10.4915 24.622C9.3728 24.5431 7.59889 24.2197 6.38947 22.8539C5.11236 21.4079 5.20558 19.0101 5.34479 17.8586C5.38821 17.4984 6.10467 14.3869 6.21323 14.0464L9.58991 4.20564Z" fill="#D9211C"/>
<path d="M17.8986 4.24658L13.9664 16.1407C13.9664 16.1407 13.2218 18.5502 14.5462 18.821C16.1273 19.1444 17.813 19.1181 18.9778 19.084C19.6789 19.0655 20.1272 19.0301 20.1272 19.0301L20.6559 17.4526L23.6852 8.38217C24.0862 7.20959 23.9585 7.47249 25.0287 7.40677H42.4191C42.3632 7.81786 42.2674 8.22214 42.133 8.61353C41.059 11.8855 37.999 14.0242 34.6441 13.9283L31.883 13.9138L30.6697 18.449L35.5227 24.3645H44.3348L39.0348 17.5946H39.4179C39.4179 17.5946 47.783 17.5288 51.6143 4.25184L17.8986 4.24658Z" fill="#1D1D1B"/>
</g>
<path d="M60.0527 13.5L58.6777 9.01953H58.6426C58.6921 9.93099 58.7168 10.5391 58.7168 10.8438V13.5H57.6348V7.78906H59.2832L60.6348 12.1562H60.6582L62.0918 7.78906H63.7402V13.5H62.6113V10.7969C62.6113 10.6693 62.6126 10.5221 62.6152 10.3555C62.6204 10.1888 62.6387 9.74609 62.6699 9.02734H62.6348L61.1621 13.5H60.0527ZM67.8613 13.5L67.6309 12.9062H67.5996C67.3991 13.1589 67.1921 13.3346 66.9785 13.4336C66.7676 13.5299 66.4915 13.5781 66.1504 13.5781C65.7311 13.5781 65.4004 13.4583 65.1582 13.2188C64.9186 12.9792 64.7988 12.638 64.7988 12.1953C64.7988 11.7318 64.9603 11.3906 65.2832 11.1719C65.6087 10.9505 66.0983 10.8281 66.752 10.8047L67.5098 10.7812V10.5898C67.5098 10.1471 67.2832 9.92578 66.8301 9.92578C66.4811 9.92578 66.071 10.0312 65.5996 10.2422L65.2051 9.4375C65.7077 9.17448 66.265 9.04297 66.877 9.04297C67.4629 9.04297 67.9121 9.17057 68.2246 9.42578C68.5371 9.68099 68.6934 10.069 68.6934 10.5898V13.5H67.8613ZM67.5098 11.4766L67.0488 11.4922C66.7025 11.5026 66.4447 11.5651 66.2754 11.6797C66.1061 11.7943 66.0215 11.9688 66.0215 12.2031C66.0215 12.5391 66.2142 12.707 66.5996 12.707C66.8757 12.707 67.0957 12.6276 67.2598 12.4688C67.4264 12.3099 67.5098 12.099 67.5098 11.8359V11.4766ZM72.9395 9.13281V10.0273H71.1152V13.5H69.9238V9.13281H72.9395ZM76.5254 13.5L76.2949 12.9062H76.2637C76.0632 13.1589 75.8561 13.3346 75.6426 13.4336C75.4316 13.5299 75.1556 13.5781 74.8145 13.5781C74.3952 13.5781 74.0645 13.4583 73.8223 13.2188C73.5827 12.9792 73.4629 12.638 73.4629 12.1953C73.4629 11.7318 73.6243 11.3906 73.9473 11.1719C74.2728 10.9505 74.7624 10.8281 75.416 10.8047L76.1738 10.7812V10.5898C76.1738 10.1471 75.9473 9.92578 75.4941 9.92578C75.1452 9.92578 74.735 10.0312 74.2637 10.2422L73.8691 9.4375C74.3717 9.17448 74.929 9.04297 75.541 9.04297C76.127 9.04297 76.5762 9.17057 76.8887 9.42578C77.2012 9.68099 77.3574 10.069 77.3574 10.5898V13.5H76.5254ZM76.1738 11.4766L75.7129 11.4922C75.3665 11.5026 75.1087 11.5651 74.9395 11.6797C74.7702 11.7943 74.6855 11.9688 74.6855 12.2031C74.6855 12.5391 74.8783 12.707 75.2637 12.707C75.5397 12.707 75.7598 12.6276 75.9238 12.4688C76.0905 12.3099 76.1738 12.099 76.1738 11.8359V11.4766ZM79.6738 10.8125C80.1243 10.8125 80.4434 10.776 80.6309 10.7031C80.821 10.6302 80.916 10.5143 80.916 10.3555C80.916 10.2148 80.847 10.1094 80.709 10.0391C80.571 9.96875 80.3431 9.93359 80.0254 9.93359C79.8249 9.93359 79.597 9.95833 79.3418 10.0078C79.0892 10.0573 78.8587 10.125 78.6504 10.2109L78.2988 9.37891C78.6087 9.26172 78.9095 9.17839 79.2012 9.12891C79.4928 9.07682 79.8184 9.05078 80.1777 9.05078C80.722 9.05078 81.1582 9.15495 81.4863 9.36328C81.8145 9.57161 81.9785 9.85417 81.9785 10.2109C81.9785 10.7031 81.6882 11.0234 81.1074 11.1719V11.2109C81.4642 11.2995 81.7181 11.4258 81.8691 11.5898C82.0228 11.7513 82.0996 11.9635 82.0996 12.2266C82.0996 12.4922 82.0137 12.7279 81.8418 12.9336C81.6699 13.1393 81.4212 13.2982 81.0957 13.4102C80.7702 13.5221 80.3874 13.5781 79.9473 13.5781C79.2181 13.5781 78.6582 13.4883 78.2676 13.3086V12.3242C78.4915 12.4284 78.7363 12.5104 79.002 12.5703C79.2702 12.6302 79.5293 12.6602 79.7793 12.6602C80.1673 12.6602 80.4577 12.6172 80.6504 12.5312C80.8431 12.4427 80.9395 12.3177 80.9395 12.1562C80.9395 11.9792 80.8379 11.849 80.6348 11.7656C80.4316 11.6797 80.1191 11.6367 79.6973 11.6367H79.2363V10.8125H79.6738ZM84.1855 9.13281V10.8594C84.1855 11.0417 84.1556 11.487 84.0957 12.1953L86.1113 9.13281H87.5449V13.5H86.3926V11.7578C86.3926 11.4479 86.4186 11.0104 86.4707 10.4453L84.4629 13.5H83.0332V9.13281H84.1855ZM89.9902 9.13281V10.8125H91.6543V9.13281H92.8457V13.5H91.6543V11.6992H89.9902V13.5H88.7988V9.13281H89.9902ZM61.1309 19.5L60.7168 18.1406H58.6348L58.2207 19.5H56.916L58.9316 13.7656H60.4121L62.4355 19.5H61.1309ZM60.4277 17.125C60.0449 15.8932 59.8288 15.1966 59.7793 15.0352C59.7324 14.8737 59.6986 14.7461 59.6777 14.6523C59.5918 14.9857 59.3457 15.8099 58.9395 17.125H60.4277ZM67.0957 16.2773C67.0957 16.5117 67.0215 16.7122 66.873 16.8789C66.7272 17.043 66.5111 17.1484 66.2246 17.1953V17.2266C66.5345 17.263 66.7793 17.3698 66.959 17.5469C67.1413 17.7214 67.2324 17.9375 67.2324 18.1953C67.2324 18.6198 67.0658 18.944 66.7324 19.168C66.3991 19.3893 65.9225 19.5 65.3027 19.5H63.0645V15.1328H65.3027C65.9017 15.1328 66.3496 15.2305 66.6465 15.4258C66.946 15.6185 67.0957 15.9023 67.0957 16.2773ZM65.998 18.1328C65.998 17.9609 65.9316 17.8372 65.7988 17.7617C65.666 17.6836 65.4668 17.6445 65.2012 17.6445H64.2559V18.6758H65.2246C65.4772 18.6758 65.6686 18.6289 65.7988 18.5352C65.9316 18.4388 65.998 18.3047 65.998 18.1328ZM65.8887 16.3711C65.8887 16.1055 65.6777 15.9727 65.2559 15.9727H64.2559V16.8359H65.1191C65.3717 16.8359 65.5632 16.7995 65.6934 16.7266C65.8236 16.6536 65.8887 16.5352 65.8887 16.3711ZM71.7949 15.1328V16.0273H70.3652V19.5H69.1738V16.0273H67.7402V15.1328H71.7949ZM73.5605 17.3086C73.5605 17.7409 73.6309 18.0677 73.7715 18.2891C73.9147 18.5104 74.1465 18.6211 74.4668 18.6211C74.7845 18.6211 75.0124 18.5117 75.1504 18.293C75.291 18.0716 75.3613 17.7435 75.3613 17.3086C75.3613 16.8763 75.291 16.5521 75.1504 16.3359C75.0098 16.1198 74.7793 16.0117 74.459 16.0117C74.1413 16.0117 73.9121 16.1198 73.7715 16.3359C73.6309 16.5495 73.5605 16.8737 73.5605 17.3086ZM76.5801 17.3086C76.5801 18.0195 76.3926 18.5755 76.0176 18.9766C75.6426 19.3776 75.1204 19.5781 74.4512 19.5781C74.0319 19.5781 73.6621 19.487 73.3418 19.3047C73.0215 19.1198 72.7754 18.8555 72.6035 18.5117C72.4316 18.168 72.3457 17.7669 72.3457 17.3086C72.3457 16.5951 72.5319 16.0404 72.9043 15.6445C73.2767 15.2487 73.8001 15.0508 74.4746 15.0508C74.8939 15.0508 75.2637 15.1419 75.584 15.3242C75.9043 15.5065 76.1504 15.7682 76.3223 16.1094C76.4941 16.4505 76.5801 16.8503 76.5801 17.3086ZM81.1777 15.1328V16.0273H79.748V19.5H78.5566V16.0273H77.123V15.1328H81.1777ZM88.0254 17.3086C88.0254 18.0247 87.8444 18.582 87.4824 18.9805C87.1204 19.3789 86.6191 19.5781 85.9785 19.5781C85.403 19.5781 84.9421 19.4167 84.5957 19.0938C84.252 18.7708 84.0436 18.306 83.9707 17.6992H83.1855V19.5H81.9941V15.1328H83.1855V16.8125H83.9863C84.0618 16.2552 84.2767 15.8229 84.6309 15.5156C84.9876 15.2057 85.4447 15.0508 86.002 15.0508C86.6191 15.0508 87.11 15.2539 87.4746 15.6602C87.8418 16.0638 88.0254 16.6133 88.0254 17.3086ZM85.1699 17.3086C85.1699 17.7435 85.2337 18.0716 85.3613 18.293C85.4889 18.5117 85.6999 18.6211 85.9941 18.6211C86.2832 18.6211 86.4915 18.5117 86.6191 18.293C86.7467 18.0716 86.8105 17.7435 86.8105 17.3086C86.8105 16.8737 86.7454 16.5495 86.6152 16.3359C86.4876 16.1198 86.278 16.0117 85.9863 16.0117C85.6973 16.0117 85.4889 16.1198 85.3613 16.3359C85.2337 16.5521 85.1699 16.8763 85.1699 17.3086ZM90.1621 15.1328V16.8594C90.1621 17.0417 90.1322 17.487 90.0723 18.1953L92.0879 15.1328H93.5215V19.5H92.3691V17.7578C92.3691 17.4479 92.3952 17.0104 92.4473 16.4453L90.4395 19.5H89.0098V15.1328H90.1621ZM95.9668 15.1328V16.8125H97.6309V15.1328H98.8223V19.5H97.6309V17.6992H95.9668V19.5H94.7754V15.1328H95.9668ZM103.088 15.1328V16.0273H101.264V19.5H100.072V15.1328H103.088ZM106.674 19.5L106.443 18.9062H106.412C106.212 19.1589 106.005 19.3346 105.791 19.4336C105.58 19.5299 105.304 19.5781 104.963 19.5781C104.544 19.5781 104.213 19.4583 103.971 19.2188C103.731 18.9792 103.611 18.638 103.611 18.1953C103.611 17.7318 103.773 17.3906 104.096 17.1719C104.421 16.9505 104.911 16.8281 105.564 16.8047L106.322 16.7812V16.5898C106.322 16.1471 106.096 15.9258 105.643 15.9258C105.294 15.9258 104.883 16.0312 104.412 16.2422L104.018 15.4375C104.52 15.1745 105.077 15.043 105.689 15.043C106.275 15.043 106.725 15.1706 107.037 15.4258C107.35 15.681 107.506 16.069 107.506 16.5898V19.5H106.674ZM106.322 17.4766L105.861 17.4922C105.515 17.5026 105.257 17.5651 105.088 17.6797C104.919 17.7943 104.834 17.9688 104.834 18.2031C104.834 18.5391 105.027 18.707 105.412 18.707C105.688 18.707 105.908 18.6276 106.072 18.4688C106.239 18.3099 106.322 18.099 106.322 17.8359V17.4766Z" fill="#4F4F4F"/>
<defs>
<clipPath id="clip0_360_24730">
<rect width="56" height="28" fill="white" transform="translate(0.916016 0.5)"/>
</clipPath>
</defs>
</svg>
