<svg width="26" height="26" viewBox="0 0 26 26" fill="none" xmlns="http://www.w3.org/2000/svg">
<path id="Shape" fill-rule="evenodd" clip-rule="evenodd" d="M25.1094 12.9478C25.1094 19.8513 19.5129 25.4478 12.6094 25.4478C5.70583 25.4478 0.109375 19.8513 0.109375 12.9478C0.109375 6.04421 5.70583 0.447754 12.6094 0.447754C19.5129 0.447754 25.1094 6.04421 25.1094 12.9478ZM8.47995 11.8027C7.22776 12.3494 5.9412 12.9112 4.76471 13.5592C4.1504 14.009 4.96686 14.3272 5.73286 14.6256C5.85464 14.6731 5.9751 14.72 6.08839 14.7669C6.18266 14.7959 6.27849 14.8264 6.37563 14.8573C7.22755 15.1287 8.17745 15.4314 9.00453 14.9761C10.3632 14.1957 11.6453 13.2934 12.9265 12.3918C13.3463 12.0963 13.7659 11.801 14.1881 11.5101C14.2079 11.4974 14.2302 11.483 14.2546 11.4672C14.6142 11.234 15.4231 10.7097 15.1239 11.4322C14.4164 12.2059 13.6585 12.8908 12.8966 13.5795C12.3831 14.0436 11.8677 14.5095 11.3645 15.0053C10.9264 15.3613 10.4713 16.0773 10.962 16.5759C12.0921 17.3671 13.2399 18.1391 14.3871 18.9106C14.7604 19.1617 15.1336 19.4127 15.5061 19.6644C16.1375 20.1684 17.1242 19.7607 17.263 18.973C17.3247 18.6107 17.3867 18.2484 17.4487 17.886C17.7912 15.8836 18.1338 13.8804 18.4365 11.8715C18.4776 11.5563 18.5242 11.2412 18.5709 10.9259C18.684 10.1618 18.7972 9.39676 18.8326 8.62854C18.7414 7.86187 17.8118 8.03046 17.2945 8.20286C14.6356 9.21463 12.0032 10.3014 9.3812 11.4073C9.08417 11.5389 8.78307 11.6704 8.47995 11.8027Z" fill="#4F4F4F"/>
</svg>
