<svg width="26" height="26" viewBox="0 0 26 26" fill="none" xmlns="http://www.w3.org/2000/svg">
<path id="Combined-Shape" fill-rule="evenodd" clip-rule="evenodd" d="M0.109375 12.9478C0.109375 6.04419 5.70582 0.447754 12.6094 0.447754C19.5129 0.447754 25.1094 6.04419 25.1094 12.9478C25.1094 19.8513 19.5129 25.4478 12.6094 25.4478C5.70582 25.4478 0.109375 19.8513 0.109375 12.9478ZM18.9974 9.86089C18.8441 9.27182 18.3923 8.80796 17.8185 8.65053C16.7788 8.36442 12.6094 8.36442 12.6094 8.36442C12.6094 8.36442 8.43991 8.36442 7.40013 8.65053C6.82642 8.80796 6.3746 9.27182 6.22127 9.86089C5.94271 10.9285 5.94271 13.1561 5.94271 13.1561C5.94271 13.1561 5.94271 15.3836 6.22127 16.4513C6.3746 17.0403 6.82642 17.5042 7.40013 17.6617C8.43991 17.9478 12.6094 17.9478 12.6094 17.9478C12.6094 17.9478 16.7788 17.9478 17.8185 17.6617C18.3923 17.5042 18.8441 17.0403 18.9974 16.4513C19.276 15.3836 19.276 13.1561 19.276 13.1561C19.276 13.1561 19.276 10.9285 18.9974 9.86089Z" fill="#4F4F4F"/>
<path id="Fill-2" fill-rule="evenodd" clip-rule="evenodd" d="M11.3594 15.4479V11.2812L14.6927 13.3647L11.3594 15.4479Z" fill="#4F4F4F"/>
</svg>
